<?xml version="1.0" encoding="UTF-8"?>
<svg xmlns="http://www.w3.org/2000/svg" version="1.1" viewBox="0 0 595.28 841.89">
  <defs>
    <style>
      .cls-1 {
        stroke: #009edc;
        stroke-width: 1.18px;
      }

      .cls-1, .cls-2, .cls-3, .cls-4, .cls-5, .cls-6, .cls-7, .cls-8, .cls-9, .cls-10, .cls-11, .cls-12, .cls-13, .cls-14, .cls-15, .cls-16, .cls-17, .cls-18, .cls-19, .cls-20, .cls-21, .cls-22, .cls-23, .cls-24, .cls-25, .cls-26, .cls-27, .cls-28, .cls-29, .cls-30, .cls-31, .cls-32, .cls-33, .cls-34 {
        fill: none;
        stroke-miterlimit: 10;
      }

      .cls-2 {
        stroke: #d080b5;
      }

      .cls-2, .cls-9 {
        stroke-width: .83px;
      }

      .cls-3 {
        stroke: #0288ca;
        stroke-width: 1.05px;
      }

      .cls-4 {
        stroke: #00b2a7;
        stroke-width: 1.73px;
      }

      .cls-5 {
        stroke: #e96eaa;
      }

      .cls-5, .cls-24 {
        stroke-width: .75px;
      }

      .cls-6 {
        stroke: #cf5fa4;
      }

      .cls-6, .cls-27 {
        stroke-width: .58px;
      }

      .cls-7 {
        stroke: #e16aa8;
      }

      .cls-7, .cls-26 {
        stroke-width: .71px;
      }

      .cls-8 {
        stroke: #ca5ca3;
      }

      .cls-8, .cls-10 {
        stroke-width: .54px;
      }

      .cls-9 {
        stroke: #f179af;
      }

      .cls-10 {
        stroke: #555fab;
      }

      .cls-11 {
        stroke: #c65ca3;
      }

      .cls-11, .cls-18 {
        stroke-width: .5px;
      }

      .cls-12 {
        stroke: #4963ae;
        stroke-width: .64px;
      }

      .cls-13 {
        stroke: #f388ab;
      }

      .cls-13, .cls-21 {
        stroke-width: .91px;
      }

      .cls-14 {
        stroke: #00b3c7;
        stroke-width: 1.45px;
      }

      .cls-15 {
        stroke: #f280b3;
      }

      .cls-15, .cls-23 {
        stroke-width: .87px;
      }

      .cls-16 {
        stroke: #f490a4;
        stroke-width: .95px;
      }

      .cls-17 {
        stroke: #436bb3;
        stroke-width: .77px;
      }

      .cls-18 {
        stroke: #4c5eaa;
      }

      .cls-19 {
        stroke: #00b199;
        stroke-width: 1.86px;
      }

      .cls-20 {
        stroke: #00b08d;
        stroke-width: 2px;
      }

      .cls-21 {
        stroke: #f38dad;
      }

      .cls-22 {
        stroke: #d461a5;
      }

      .cls-22, .cls-34 {
        stroke-width: .62px;
      }

      .cls-23 {
        stroke: #e486b5;
      }

      .cls-24 {
        stroke: #a474b2;
      }

      .cls-25 {
        stroke: #00aed6;
        stroke-width: 1.32px;
      }

      .cls-26 {
        stroke: #8d6eb0;
      }

      .cls-27 {
        stroke: #6060ab;
      }

      .cls-28 {
        stroke: #3677bc;
        stroke-width: .91px;
      }

      .cls-29 {
        stroke: #ba7bb4;
      }

      .cls-29, .cls-30 {
        stroke-width: .79px;
      }

      .cls-30 {
        stroke: #f175ad;
      }

      .cls-31 {
        stroke: #db65a6;
      }

      .cls-31, .cls-33 {
        stroke-width: .67px;
      }

      .cls-32 {
        stroke: #00b3b5;
        stroke-width: 1.59px;
      }

      .cls-33 {
        stroke: #7b66ad;
      }

      .cls-34 {
        stroke: #6b63ac;
      }
    </style>
  </defs>
  <!-- Generator: Adobe Illustrator 28.6.0, SVG Export Plug-In . SVG Version: 1.2.0 Build 709)  -->
  <g>
    <g id="Layer_1">
      <g>
        <path class="cls-20" d="M196.86-11.32c19.59-6.72,43.73-8.85,56.51,12.79,10.95,18.55,8,46.43.48,68.01-7.52,21.58-18.94,40.58-24.33,63.35s-2.34,52.4,12.96,63.59c8.47,6.19,18.61,5.32,28.16,4.3,22.16-2.36,47.49-3.11,62.93,19.03,14.36,20.6,14.17,54.05,6.72,80.75-7.45,26.7-20.81,49.33-30.9,74.32-19.07,47.2-26.16,104.06-17.39,156.76,7.71,46.35,30.06,91.14,63.08,104.2,21.87,8.65,45.49,2.5,66.8-8.51,21.31-11.01,41.22-26.73,62.43-38.09,21.22-11.37,44.63-18.3,66.72-10.75,22.09,7.55,42.16,32.55,44.3,63.91"/>
        <path class="cls-19" d="M215.9-11.97c17.15-4.97,38.66-5.58,50.03,15.49,9.75,18.04,6.99,44.63.17,65.5-6.82,20.85-17.09,39.37-21.81,61.29-1.97,9.16-2.59,19.41-1.62,29.06,1.35,13.44,5.82,25.73,14.07,32.33,7.84,6.29,17.21,6.16,26.03,5.89,20.48-.63,43.85.22,58.12,21.88,13.28,20.17,13.26,52.03,6.48,77.78-6.78,25.92-19.1,48.12-28.42,72.47-4.14,10.83-7.68,22.14-10.53,33.78-9.27,37.81-11.43,79.21-4.16,117.64,7.02,37.09,24.23,71.72,48.29,88.89,4.95,3.54,10.19,6.34,15.72,8.28,21.45,7.52,44.46,1.25,65.39-9.21,20.46-10.32,39.7-24.8,60.09-35.04,16.04-8.04,33.3-13.41,50.17-11.57,4.59.5,9.15,1.53,13.64,3.18,21.01,7.72,40,31.69,42.38,61.63"/>
        <path class="cls-4" d="M234.93-12.49c14.7-3.21,33.6-2.32,43.56,18.19,8.55,17.54,5.98,42.83-.13,63-6.12,20.13-15.24,38.17-19.3,59.23-1.69,8.82-2.16,18.61-1.18,27.85,1.36,12.84,5.53,24.65,13.11,31.34,7.21,6.38,15.8,6.99,23.91,7.47,18.81,1.11,40.2,3.54,53.31,24.73,12.2,19.73,12.34,50.01,6.24,74.82-6.1,25.14-17.4,46.91-25.95,70.62-3.8,10.54-7.04,21.53-9.64,32.81-8.44,36.64-10.18,76.73-2.35,113.28,7.66,35.75,25.62,67.65,49.46,82.9,4.9,3.14,10.06,5.59,15.47,7.24,21.03,6.38,43.45.08,63.98-9.91,19.64-9.55,38.18-22.88,57.75-31.98,15.41-7.15,31.89-11.68,47.95-9.43,4.37.61,8.7,1.72,12.96,3.41,19.93,7.89,37.84,30.83,40.45,59.35"/>
        <path class="cls-32" d="M253.97-12.79c12.25-1.45,28.53.94,37.08,20.88,7.35,17.03,4.97,41.03-.44,60.49-5.41,19.4-13.39,36.96-16.79,57.17-1.41,8.48-1.72,17.81-.74,26.64,1.36,12.25,5.24,23.57,12.16,30.34,6.59,6.48,14.4,7.82,21.79,9.06,17.13,2.84,36.55,6.87,48.5,27.58,11.12,19.3,11.37,47.97,6,71.85-5.48,24.33-15.7,45.7-23.47,68.78-3.46,10.26-6.41,20.91-8.75,31.83-7.62,35.47-8.91,74.24-.54,108.92,8.31,34.41,27,63.58,50.63,76.91,4.85,2.75,9.93,4.84,15.23,6.19,20.61,5.25,42.42-1.13,62.57-10.61,18.79-8.83,36.66-20.96,55.41-28.92,14.78-6.26,30.48-9.96,45.72-7.29,4.14.72,8.24,1.91,12.28,3.63,18.85,8.06,35.68,29.97,38.52,57.07"/>
        <path class="cls-14" d="M273-12.73c9.81.31,23.46,4.21,30.61,23.58,6.14,16.52,3.96,39.23-.75,57.99-4.71,18.67-11.54,35.75-14.27,55.11-1.13,8.14-1.29,17.01-.3,25.43,1.37,11.65,4.95,22.5,11.2,29.35,5.96,6.58,13,8.66,19.66,10.64,15.45,4.58,32.9,10.19,43.69,30.43,10.04,18.87,10.45,45.95,5.76,68.89-4.81,23.55-14,44.49-21,66.93-3.11,9.98-5.77,20.3-7.86,30.85-6.79,34.29-7.63,71.76,1.28,104.56,8.97,33.07,28.38,59.51,51.8,70.92,4.8,2.35,9.8,4.09,14.98,5.15,20.19,4.11,41.39-2.36,61.16-11.3,17.95-8.12,35.14-19.03,53.07-25.86,14.14-5.36,29.07-8.24,43.5-5.15,3.92.83,7.79,2.1,11.59,3.86,17.77,8.23,33.52,29.11,36.59,54.79"/>
        <path class="cls-25" d="M292.04-12.51c7.36,2.06,18.39,7.47,24.14,26.28,4.94,16.02,2.95,37.43-1.06,55.48-4.01,17.94-9.68,34.55-11.76,53.05-.86,7.79-.86,16.21.14,24.22,1.37,11.06,4.67,21.4,10.25,28.36,5.34,6.66,11.6,9.49,17.54,12.23,13.78,6.31,29.25,13.51,38.88,33.28,8.96,18.44,9.52,43.93,5.52,65.93-4.15,22.76-12.29,43.28-18.52,65.08-2.77,9.69-5.14,19.68-6.97,29.88-5.96,33.12-6.33,69.27,3.09,100.2,9.65,31.72,29.76,55.44,52.98,64.93,4.75,1.96,9.66,3.34,14.74,4.11,19.77,2.98,40.36-3.59,59.75-12,17.1-7.42,33.63-17.11,50.73-22.81,13.51-4.47,27.66-6.51,41.28-3.02,3.69.94,7.34,2.29,10.91,4.08,16.69,8.41,31.36,28.26,34.66,52.51"/>
        <path class="cls-1" d="M311.08-12.28c4.91,3.82,13.3,10.75,17.66,28.98,3.72,15.52,1.94,35.63-1.37,52.97-3.31,17.22-7.83,33.34-9.24,50.99-.58,7.45-.42,15.41.58,23.02,1.37,10.46,4.38,20.32,9.3,27.36,4.71,6.75,10.19,10.33,15.41,13.81,12.1,8.05,25.6,16.84,34.07,36.13,7.88,18.01,8.6,41.91,5.28,62.96-3.48,21.98-10.59,42.07-16.05,63.23-2.43,9.41-4.5,19.06-6.08,28.9-5.13,31.95-5.01,66.77,4.9,95.85,10.35,30.37,31.15,51.36,54.15,58.94,4.7,1.56,9.53,2.59,14.49,3.07,19.35,1.84,39.33-4.83,58.34-12.7,16.25-6.73,32.11-15.19,48.39-19.75,12.88-3.58,26.25-4.79,39.06-.88,3.47,1.05,6.89,2.48,10.22,4.31,15.61,8.58,29.2,27.4,32.73,50.23"/>
        <path class="cls-3" d="M330.11-12.06c2.47,5.58,8.23,14.01,11.19,31.68,2.52,15.01.93,33.83-1.67,50.47-2.6,16.49-5.98,32.14-6.73,48.93-.3,7.11.01,14.61,1.02,21.81,1.38,9.87,4.1,19.25,8.34,26.37,4.09,6.85,8.79,11.16,13.29,15.4,10.42,9.79,21.96,20.16,29.26,38.98,6.8,17.57,7.69,39.9,5.04,60-2.8,21.2-8.89,40.86-13.57,61.38-2.08,9.12-3.86,18.45-5.19,27.92-4.3,30.78-3.67,64.26,6.71,91.49,11.06,29.01,32.53,47.29,55.32,52.95,4.65,1.17,9.4,1.84,14.24,2.03,18.93.71,38.29-6.08,56.93-13.4,15.4-6.05,30.59-13.26,46.05-16.69,12.25-2.69,24.84-3.07,36.84,1.26,3.25,1.16,6.43,2.67,9.54,4.53,14.53,8.75,27.04,26.54,30.8,47.95"/>
        <path class="cls-28" d="M349.89-11.83c.02,7.34,3.16,17.27,4.71,34.38,1.32,14.5-.08,32.03-1.98,47.96-1.9,15.76-4.13,30.93-4.21,46.87-.02,6.76.45,13.81,1.46,20.6,1.38,9.27,3.81,18.17,7.39,25.38,3.46,6.95,7.39,11.99,11.16,16.99,8.75,11.52,18.31,23.49,24.45,41.83,5.72,17.14,6.78,37.89,4.8,57.03-2.12,20.43-7.19,39.65-11.1,59.53-1.74,8.84-3.23,17.83-4.3,26.95-3.47,29.61-2.32,61.74,8.52,87.13,11.8,27.63,33.91,43.22,56.49,46.96,4.6.77,9.27,1.09,14,.99,18.51-.43,37.26-7.35,55.52-14.1,14.55-5.38,29.07-11.34,43.71-13.63,11.61-1.79,23.42-1.34,34.61,3.4,3.02,1.27,5.98,2.86,8.85,4.76,13.46,8.92,24.88,25.68,28.88,45.67"/>
        <path class="cls-17" d="M371.14-11.61c-2.43,9.09-1.88,20.53-1.76,37.08.14,13.99-1.09,30.23-2.29,45.46-1.2,15.04-2.27,29.72-1.7,44.81.26,6.42.88,13.01,1.9,19.39,1.38,8.68,3.51,17.1,6.44,24.39,2.83,7.05,5.99,12.83,9.04,18.57,7.07,13.26,14.66,26.81,19.64,44.68,4.64,16.71,5.88,35.87,4.56,54.07-1.43,19.65-5.49,38.43-8.62,57.68-1.39,8.56-2.59,17.22-3.41,25.97-2.64,28.44-.95,59.19,10.33,82.77,12.56,26.23,35.29,39.15,57.66,40.97,4.55.38,9.13.35,13.75-.05,18.09-1.56,36.22-8.63,54.11-14.8,13.69-4.72,27.55-9.42,41.37-10.58,10.98-.9,22.01.38,32.39,5.53,2.8,1.38,5.53,3.05,8.17,4.99,12.38,9.09,22.72,24.82,26.95,43.39"/>
        <path class="cls-12" d="M392.78-11.38c-4.87,10.85-6.95,23.8-8.24,39.77-1.07,13.48-2.1,28.43-2.6,42.95-.5,14.31-.42,28.52.81,42.74.54,6.08,1.32,12.21,2.34,18.18,1.39,8.08,3.21,16.03,5.48,23.39,2.19,7.16,4.58,13.66,6.92,20.16,5.39,14.99,11.01,30.14,14.82,47.53,3.56,16.28,4.98,33.86,4.32,51.1-.73,18.87-3.78,37.22-6.15,55.84-1.05,8.27-1.96,16.6-2.52,24.99-1.82,27.27.44,56.62,12.15,78.41,13.33,24.81,36.68,35.08,58.83,34.98,4.5-.01,9-.4,13.51-1.09,17.67-2.7,35.17-9.94,52.7-15.5,12.83-4.07,26.03-7.49,39.02-7.52,10.35-.01,20.6,2.1,30.17,7.67,2.57,1.5,5.07,3.24,7.49,5.21,11.3,9.26,20.56,23.96,25.02,41.11"/>
        <path class="cls-18" d="M415.08-11.15c-22.14,38.15-20.3,93.17-11.51,140.57,8.79,47.4,23.47,93.71,23.41,142.65-.03,26.13-4.31,51.91-5.3,78-.99,26.09,1.84,54.03,13.96,74.05,14.13,23.34,38.06,31,60,28.99,21.94-2.02,43.02-12.14,64.55-18.33,21.53-6.19,44.91-8.13,64.63,5.35,13.37,9.14,24.21,25.19,29.89,44.27"/>
        <path class="cls-10" d="M423.11-11.46c-15.28,27.16-19.74,61.93-18.8,96.53.39,14.56,1.72,29.13,3.74,43.14,1.91,13.24,4.36,26.45,7.07,39.69,1.31,6.39,2.69,12.83,4.26,19.02,2.27,8.93,4.71,17.12,6.78,25.83,4.15,17.42,6.38,36.61,6.27,55.73-.14,24.61-4.08,48.96-4.96,73.55-.89,24.63,1.81,50.89,13.23,69.81,10.95,18.18,28.14,26.24,45.3,28.59,4.43.61,8.86.84,13.2.73,21.17-.57,41.27-8.11,62.32-12.97,18.13-4.19,37.54-7.25,55.05-1.31,3.31,1.13,6.57,2.59,9.76,4.44,13.62,7.84,25.07,22.54,31.12,41.47"/>
        <path class="cls-27" d="M431.34-11.77c-14.96,27.47-20.2,61.78-20.56,95.94-.17,14.39.5,28.84,1.95,42.83,1.36,13.23,3.35,26.47,5.83,39.78,1.2,6.42,2.55,12.93,4.33,18.95,2.57,8.68,5.57,15.85,8.09,24,5.05,16.32,7.31,36.01,7.11,55.15-.24,23.09-3.84,46.01-4.63,69.1-.79,23.17,1.78,47.75,12.5,65.56,10.67,17.8,27.62,25.28,44.24,28.22,4.29.76,8.57,1.23,12.75,1.42,20.39.88,39.54-4.04,60.1-7.61,18.17-3.15,37.57-7.09,55.16-2.66,3.32.85,6.6,2.03,9.84,3.57,13.86,6.59,25.94,19.9,32.35,38.67"/>
        <path class="cls-34" d="M439.86-12.08c-14.65,27.77-20.65,61.62-22.32,95.35-.73,14.23-.71,28.55.15,42.52.82,13.22,2.33,26.48,4.59,39.87,1.09,6.45,2.41,13.04,4.39,18.88,2.86,8.42,6.43,14.58,9.4,22.18,5.96,15.23,8.24,35.41,7.95,54.57-.33,21.58-3.61,43.06-4.29,64.64-.69,21.71,1.75,44.62,11.77,61.32,10.38,17.42,27.11,24.32,43.19,27.86,4.16.92,8.28,1.63,12.31,2.12,19.61,2.33,37.81.06,57.87-2.25,18.22-2.09,37.61-6.99,55.27-4.01,3.32.56,6.63,1.46,9.91,2.7,14.1,5.32,26.81,17.25,33.58,35.87"/>
        <path class="cls-33" d="M448.73-12.39c-14.33,28.07-21.1,61.47-24.08,94.75-1.28,14.06-1.93,28.27-1.64,42.22.27,13.2,1.32,26.5,3.35,39.96.98,6.48,2.27,13.15,4.46,18.81,3.16,8.17,7.3,13.3,10.72,20.36,6.87,14.13,9.18,34.8,8.79,53.99-.41,20.06-3.37,40.11-3.96,60.19-.58,20.25,1.74,41.46,11.04,57.08,10.13,17.02,26.59,23.36,42.13,27.49,4.02,1.08,7.99,2.02,11.86,2.81,18.83,3.78,36.1,4.19,55.64,3.11,18.28-1.01,37.64-6.84,55.37-5.35,3.32.28,6.67.89,9.99,1.83,14.35,4.04,27.67,14.61,34.81,33.07"/>
        <path class="cls-26" d="M457.9-12.7c-14.02,28.38-21.55,61.32-25.84,94.16-1.84,13.9-3.15,27.98-3.44,41.91-.28,13.19.3,26.52,2.11,40.05.87,6.51,2.13,13.25,4.52,18.73,3.46,7.91,8.16,12.03,12.03,18.53,7.78,13.04,10.12,34.2,9.63,53.41-.47,18.54-3.13,37.16-3.62,55.74-.48,18.79,1.71,38.32,10.31,52.83,9.85,16.64,26.07,22.39,41.07,27.13,3.89,1.23,7.7,2.42,11.41,3.5,18.05,5.23,34.41,7.31,53.41,8.47,18.32,1.12,37.66-6.82,55.48-6.7,3.33.02,6.7.32,10.06.95,14.6,2.75,28.54,11.96,36.04,30.27"/>
        <path class="cls-24" d="M467.29-13.01c-13.7,28.68-22,61.17-27.6,93.57-2.4,13.73-4.36,27.69-5.23,41.6-.83,13.17-.71,26.54.87,40.14.76,6.54,1.99,13.36,4.59,18.66,3.75,7.65,9.02,10.75,13.34,16.71,8.69,11.94,11.07,33.6,10.47,52.83-.53,17.02-2.9,34.21-3.29,51.28-.38,17.32,1.69,35.18,9.58,48.59,9.57,16.26,25.56,21.43,40.02,26.76,3.75,1.39,7.41,2.81,10.97,4.2,17.27,6.68,32.68,12.57,51.18,13.83,18.41,1.26,37.69-6.53,55.59-8.05,3.33-.28,6.73-.25,10.14.08,14.85,1.45,29.4,9.32,37.27,27.47"/>
        <path class="cls-29" d="M476.82-13.31c-13.39,28.99-22.46,61.01-29.36,92.97-2.95,13.56-5.58,27.4-7.03,41.3-1.38,13.16-1.73,26.55-.37,40.24.66,6.57,1.85,13.46,4.65,18.59,4.05,7.4,9.88,9.48,14.65,14.89,9.6,10.85,12.03,32.99,11.31,52.25-.58,15.5-2.66,31.26-2.95,46.83-.28,15.86,1.65,32.05,8.85,44.34,9.29,15.88,25.04,20.47,38.96,26.4,3.62,1.55,7.12,3.21,10.52,4.89,16.5,8.13,30.97,16.81,48.95,19.19,18.47,2.45,37.72-6.37,55.69-9.39,3.33-.56,6.76-.82,10.21-.79,15.1.15,30.27,6.67,38.5,24.67"/>
        <path class="cls-2" d="M486.44-13.62c-13.08,29.29-22.91,60.86-31.12,92.38-3.51,13.4-6.79,27.11-8.82,40.99-1.92,13.14-2.74,26.57-1.61,40.33.55,6.6,1.7,13.57,4.72,18.52,4.35,7.14,10.74,8.2,15.96,13.06,10.5,9.75,13.01,32.39,12.15,51.67-.62,13.98-2.43,28.31-2.62,42.38-.18,14.4,1.62,28.91,8.11,40.1,9,15.51,24.52,19.51,37.9,26.03,3.48,1.7,6.83,3.6,10.07,5.59,15.72,9.58,29.25,21.09,46.72,24.55,18.53,3.67,37.75-6.21,55.8-10.74,3.34-.84,6.8-1.4,10.28-1.66,15.35-1.15,31.14,4.03,39.73,21.87"/>
        <path class="cls-23" d="M496.12-13.93c-12.76,29.59-23.36,60.71-32.88,91.79-4.07,13.23-8.01,26.82-10.62,40.68-2.47,13.13-3.76,26.59-2.85,40.42.44,6.63,1.56,13.67,4.78,18.45,4.64,6.89,11.6,6.93,17.28,11.24,11.41,8.65,14,31.79,12.99,51.09-.65,12.47-2.19,25.35-2.28,37.92-.08,12.94,1.59,25.78,7.38,35.85,8.71,15.14,24.01,18.55,36.85,25.67,3.35,1.86,6.54,4,9.62,6.28,14.94,11.03,27.53,25.4,44.49,29.91,18.57,4.94,37.79-6,55.91-12.09,3.34-1.11,6.83-1.98,10.36-2.53,15.6-2.46,32,1.38,40.95,19.07"/>
        <path class="cls-21" d="M505.84-15.39c-12.45,29.9-23.81,60.55-34.64,91.19-4.63,13.07-9.23,26.53-12.41,40.37-3.02,13.11-4.78,26.61-4.09,40.51.33,6.66,1.42,13.78,4.85,18.38,4.94,6.63,12.47,5.66,18.59,9.42,12.32,7.56,15.01,31.19,13.83,50.51-.67,10.95-1.96,22.4-1.95,33.47.02,11.48,1.54,22.67,6.65,31.61,8.4,14.79,23.49,17.59,35.79,25.3,3.21,2.02,6.25,4.39,9.18,6.98,14.16,12.48,25.79,29.74,42.26,35.27,18.6,6.24,37.82-5.84,56.01-13.43,3.35-1.39,6.86-2.56,10.43-3.41,15.84-3.8,32.87-1.26,42.18,16.27"/>
        <path class="cls-16" d="M515.59-18.47c-12.13,30.2-24.26,60.4-36.4,90.6-10.09,25.12-20.49,51.94-19.54,80.66.22,6.69,1.28,13.89,4.91,18.31,5.23,6.37,13.33,4.38,19.9,7.59,13.23,6.46,16.06,30.6,14.67,49.93-1.39,19.33-4.32,41.07,4.31,56.38,8.12,14.41,22.97,16.63,34.73,24.94,17.93,12.67,29.45,40.43,48.77,48.3,18.62,7.59,37.85-5.69,56.12-14.78,18.27-9.09,42.07-12.09,53.92,9.19"/>
        <path class="cls-13" d="M524.53-18.69c-11.34,28.69-22.67,57.4-33.93,86.12-9.37,23.9-18.96,49.35-18.16,76.54.19,6.33,1.2,13.03,4.43,17.4,4.84,6.54,12.13,5.76,18.22,9.56,12.24,7.63,15.62,31.27,14.88,50.15-.7,18.01-3.37,38.13,4.78,52.39,7.68,13.43,21.49,15.73,32.5,23.56,16.79,11.93,27.8,37.45,45.86,45.02,18.25,7.65,37.07-3.68,55.06-11.45,17.99-7.77,41.04-10.17,53.24,9.32"/>
        <path class="cls-15" d="M533.47-18.94c-10.56,27.18-21.08,54.39-31.46,81.64-8.64,22.67-17.43,46.75-16.79,72.41.15,5.97,1.12,12.2,3.95,16.49,4.44,6.73,10.94,7.14,16.53,11.52,11.25,8.79,15.17,31.88,15.1,50.37-.06,16.67-2.43,35.19,5.25,48.4,7.23,12.44,20,14.84,30.26,22.18,15.65,11.19,26.14,34.48,42.95,41.73,17.87,7.71,36.29-1.68,54.01-8.12,17.71-6.45,40.01-8.25,52.56,9.46"/>
        <path class="cls-9" d="M542.42-19.96c-9.77,25.67-19.49,51.39-29,77.16-7.91,21.44-15.91,44.15-15.41,68.29.12,5.62,1.03,11.4,3.47,15.59,4.05,6.95,9.74,8.52,14.84,13.48,10.27,9.96,14.69,32.43,15.31,50.59.52,15.29-1.48,32.25,5.72,44.41,6.78,11.45,18.51,13.94,28.03,20.8,14.51,10.45,24.49,31.53,40.05,38.44,17.5,7.77,35.51.33,52.95-4.79,17.43-5.13,38.98-6.34,51.87,9.59"/>
        <path class="cls-30" d="M551.36-21.76c-8.98,24.15-17.89,48.38-26.53,72.68-7.19,20.21-14.38,41.56-14.03,64.16.08,5.26.93,10.62,2.99,14.68,3.66,7.21,8.54,9.9,13.16,15.45,9.28,11.12,14.18,32.95,15.52,50.81,1.04,13.89-.54,29.3,6.19,40.42,6.34,10.47,17.03,13.05,25.8,19.42,13.37,9.72,22.83,28.59,37.14,35.15,17.13,7.85,34.72,2.34,51.9-1.47,17.15-3.81,37.95-4.42,51.19,9.72"/>
        <path class="cls-5" d="M560.31-23.57c-8.19,22.64-16.3,45.37-24.07,68.2-6.46,18.99-12.85,38.96-12.66,60.04.04,4.91.82,9.86,2.51,13.77,3.25,7.51,7.35,11.28,11.47,17.41,8.29,12.29,13.62,33.42,15.74,51.03,1.5,12.48.4,26.36,6.66,36.43,5.89,9.48,15.54,12.16,23.56,18.04,12.23,8.98,21.16,25.67,34.24,31.87,16.75,7.94,33.94,4.34,50.84,1.86,16.87-2.49,36.92-2.5,50.51,9.86"/>
        <path class="cls-7" d="M569.26-25.37c-7.4,21.13-14.71,42.37-21.6,63.72-5.73,17.76-11.32,36.36-11.28,55.91,0,4.55.69,9.13,2.04,12.87,2.83,7.84,6.15,12.66,9.79,19.37,7.31,13.45,12.99,33.87,15.95,51.25,1.88,11.06,1.35,23.42,7.13,32.44,5.44,8.49,14.05,11.26,21.33,16.67,11.09,8.24,19.49,22.76,31.33,28.58,16.37,8.05,33.16,6.35,49.79,5.19,16.59-1.17,35.89-.58,49.82,9.99"/>
        <path class="cls-31" d="M578.21-27.17c-6.61,19.62-13.11,39.36-19.13,59.24-5.01,16.53-9.79,33.77-9.91,51.78-.03,4.19.54,8.42,1.56,11.96,2.36,8.21,4.96,14.04,8.1,21.34,6.32,14.62,12.28,34.33,16.16,51.47,2.19,9.65,2.29,20.48,7.6,28.45,5,7.5,12.57,10.37,19.09,15.29,9.95,7.5,17.82,19.87,28.43,25.29,15.99,8.17,32.38,8.36,48.73,8.52,16.32.15,34.87,1.33,49.14,10.12"/>
        <path class="cls-22" d="M587.16-28.97c-5.83,18.11-11.52,36.36-16.67,54.76-4.28,15.3-8.26,31.17-8.53,47.66-.06,3.84.36,7.71,1.08,11.05,1.84,8.6,3.76,15.42,6.41,23.3,5.33,15.78,11.43,34.84,16.37,51.69,2.42,8.27,3.23,17.54,8.06,24.46,4.55,6.52,11.08,9.47,16.86,13.91,8.81,6.76,16.14,17,25.52,22,15.6,8.32,31.6,10.36,47.68,11.85,16.04,1.47,33.84,3.25,48.45,10.26"/>
        <path class="cls-6" d="M596.12-30.78c-5.04,16.6-9.93,33.35-14.2,50.28-3.55,14.08-6.73,28.57-7.15,43.53-.1,3.48.16,7.01.6,10.15,1.24,9,2.56,16.8,4.73,25.26,4.35,16.94,10.43,35.48,16.59,51.91,2.6,6.94,4.18,14.6,8.53,20.47,4.1,5.53,9.59,8.58,14.62,12.53,7.67,6.02,14.46,14.15,22.61,18.72,15.2,8.51,30.81,12.37,46.62,15.17,15.76,2.79,32.81,5.17,47.77,10.39"/>
        <path class="cls-8" d="M605.1-32.58c-4.25,15.09-8.33,30.35-11.73,45.8-2.83,12.85-5.21,25.98-5.78,39.41-.13,3.13-.05,6.29.12,9.24.55,9.38,1.37,18.18,3.04,27.23,3.36,18.11,9.22,36.38,16.8,52.13,2.74,5.7,5.12,11.66,9,16.48,3.66,4.54,8.11,7.69,12.39,11.15,6.53,5.29,12.77,11.32,19.71,15.43,14.78,8.75,30.03,14.38,45.57,18.5,15.48,4.11,31.78,7.09,47.09,10.52"/>
        <path class="cls-11" d="M614.23-34.38c-7.01,27.49-13.28,55.79-14.03,84.93-.75,29.14,4.55,59.54,18.37,81.54,9.72,15.48,22.96,25.87,36.43,34.41,28.61,18.12,59.55,29.18,90.92,32.49"/>
      </g>
    </g>
  </g>
</svg>