<?xml version="1.0" encoding="UTF-8"?>
<svg xmlns="http://www.w3.org/2000/svg" version="1.1" xmlns:xlink="http://www.w3.org/1999/xlink" viewBox="0 0 595.28 841.89">
  <defs>
    <style>
      .cls-1 {
        stroke: url(#Degradado_sin_nombre_23-7);
      }

      .cls-1, .cls-2, .cls-3, .cls-4, .cls-5, .cls-6, .cls-7, .cls-8, .cls-9, .cls-10 {
        fill: none;
        stroke-miterlimit: 10;
      }

      .cls-2 {
        stroke: url(#Degradado_sin_nombre_23);
      }

      .cls-3 {
        stroke: url(#Degradado_sin_nombre_23-4);
      }

      .cls-4 {
        stroke: url(#Degradado_sin_nombre_23-3);
      }

      .cls-5 {
        stroke: url(#Degradado_sin_nombre_23-6);
      }

      .cls-6 {
        stroke: url(#Degradado_sin_nombre_23-2);
      }

      .cls-7 {
        stroke: url(#Degradado_sin_nombre_23-8);
      }

      .cls-8 {
        stroke: url(#Degradado_sin_nombre_23-9);
      }

      .cls-9 {
        stroke: url(#Degradado_sin_nombre_23-5);
      }

      .cls-10 {
        stroke: url(#Degradado_sin_nombre_23-10);
      }
    </style>
    <linearGradient id="Degradado_sin_nombre_23" data-name="Degradado sin nombre 23" x1="61.52" y1="397.47" x2="496.33" y2="397.47" gradientTransform="translate(-19.99 11.67) rotate(-2.29)" gradientUnits="userSpaceOnUse">
      <stop offset=".13" stop-color="#878bc4"/>
      <stop offset=".61" stop-color="#1da3dd"/>
      <stop offset=".98" stop-color="#059f9a"/>
    </linearGradient>
    <linearGradient id="Degradado_sin_nombre_23-2" data-name="Degradado sin nombre 23" x1="45.49" y1="411.07" x2="531.33" y2="392.58" gradientTransform="translate(-67.06 43.8) rotate(-7.82)" xlink:href="#Degradado_sin_nombre_23"/>
    <linearGradient id="Degradado_sin_nombre_23-3" data-name="Degradado sin nombre 23" x1="25.82" y1="442.66" x2="552.87" y2="376.27" gradientTransform="translate(-67.06 43.8) rotate(-7.82)" xlink:href="#Degradado_sin_nombre_23"/>
    <linearGradient id="Degradado_sin_nombre_23-4" data-name="Degradado sin nombre 23" x1="10.66" y1="464.8" x2="583.83" y2="367.15" gradientTransform="translate(-87.96 60.75) rotate(-10.33)" xlink:href="#Degradado_sin_nombre_23"/>
    <linearGradient id="Degradado_sin_nombre_23-5" data-name="Degradado sin nombre 23" x1="-10.09" y1="481.24" x2="608.9" y2="363.14" gradientTransform="translate(-117.19 87.11) rotate(-14.2)" xlink:href="#Degradado_sin_nombre_23"/>
    <linearGradient id="Degradado_sin_nombre_23-6" data-name="Degradado sin nombre 23" x1="-32.03" y1="507.49" x2="661.34" y2="364.97" gradientTransform="translate(-147.6 118.19) rotate(-18.38)" xlink:href="#Degradado_sin_nombre_23"/>
    <linearGradient id="Degradado_sin_nombre_23-7" data-name="Degradado sin nombre 23" x1="-36.28" y1="535.31" x2="688.76" y2="357.2" gradientTransform="translate(-167.35 139.85) rotate(-21.2)" xlink:href="#Degradado_sin_nombre_23"/>
    <linearGradient id="Degradado_sin_nombre_23-8" data-name="Degradado sin nombre 23" x1="-74.99" y1="551.47" x2="722.01" y2="324.5" gradientTransform="translate(-185.55 163.86) rotate(-24.1)" xlink:href="#Degradado_sin_nombre_23"/>
    <linearGradient id="Degradado_sin_nombre_23-9" data-name="Degradado sin nombre 23" x1="-132.67" y1="586.97" x2="754.27" y2="298.47" gradientTransform="translate(-202.27 188.52) rotate(-26.98)" xlink:href="#Degradado_sin_nombre_23"/>
    <linearGradient id="Degradado_sin_nombre_23-10" data-name="Degradado sin nombre 23" x1="-173.69" y1="639.99" x2="821.7" y2="262.16" gradientTransform="translate(-214.73 207.21) rotate(-29.22)" xlink:href="#Degradado_sin_nombre_23"/>
  </defs>
  <!-- Generator: Adobe Illustrator 28.6.0, SVG Export Plug-In . SVG Version: 1.2.0 Build 709)  -->
  <g>
    <g id="Layer_1">
      <path class="cls-2" d="M219.1,246.9c-15.28,7.19-29.98,15.61-43.89,24.45-26.25,16.69-56.74,27.19-80.72,47.31-13.85,11.62-25.07,26.57-31.37,43.52-7.75,20.82-8.52,45.71,3.39,65.09,5.18,8.42,12.35,15.5,20.26,21.43,22.58,16.91,50.26,24.22,76.97,31.77,28.01,7.93,52.69,17.37,77.51,33.02,21.62,13.64,42.53,28.68,65.93,38.98,56.03,24.66,125.84,14.89,165.69-33.91,11.45-14.02,19.47-31.15,21.05-49.18,1.66-19.01-3.78-37.91-10.38-55.81-18.31-49.59-45.29-96.61-78.2-137.94-30.22-37.95-71.4-56.21-120.14-49.44-22.76,3.16-44.97,10.77-66.08,20.7Z"/>
      <path class="cls-6" d="M195.51,236.69c-16.36,9.73-31.94,20.76-46.57,32.19-27.63,21.57-60.69,36.66-85.41,61.83-14.28,14.54-25.23,32.52-30.46,52.22-6.43,24.2-4.6,52.2,10.87,72.64,6.72,8.89,15.53,16.05,25.05,21.84,27.16,16.51,59,21.71,89.78,27.28,32.28,5.85,60.99,13.76,90.52,28.62,25.73,12.95,50.82,27.55,78.18,36.56,65.53,21.57,142.76,3.03,182.16-56.02,11.32-16.97,18.46-37.05,18.27-57.45-.2-21.5-8.35-42.11-17.71-61.47-25.92-53.64-61.29-103.44-102.69-146.22-38.01-39.28-86.18-55.29-140.12-42.4-25.18,6.02-49.27,16.96-71.87,30.4Z"/>
      <path class="cls-4" d="M189.46,217.42c-18.25,10.85-35.63,23.17-51.96,35.91-30.83,24.06-67.71,40.9-95.28,68.99-15.93,16.22-28.15,36.29-33.99,58.26-7.17,27-5.13,58.24,12.12,81.04,7.5,9.92,17.33,17.9,27.95,24.36,30.3,18.42,65.83,24.22,100.17,30.44,36.02,6.52,68.04,15.35,100.99,31.93,28.7,14.45,56.7,30.74,87.22,40.79,73.11,24.07,159.28,3.39,203.23-62.5,12.63-18.93,20.59-41.34,20.38-64.1-.22-23.99-9.32-46.98-19.76-68.58-28.92-59.84-68.39-115.41-114.57-163.14-42.41-43.82-96.15-61.69-156.33-47.31-28.09,6.72-54.97,18.92-80.19,33.91Z"/>
      <path class="cls-3" d="M174.41,203.5c-19.68,12.9-38.32,27.37-55.78,42.28-32.96,28.13-72.97,48.56-102.13,81-16.84,18.73-29.4,41.53-34.8,66.14-6.63,30.24-2.85,64.72,17.36,89.12,8.79,10.61,20.05,18.98,32.13,25.61,34.44,18.92,74.05,23.61,112.36,28.83,40.19,5.47,76.07,13.68,113.35,30.44,32.47,14.6,64.26,31.28,98.54,40.92,82.1,23.09,176.48-3.99,221.94-79.06,13.06-21.57,20.79-46.76,19.45-71.95-1.41-26.54-12.6-51.55-25.2-74.96-34.92-64.84-81.31-124.43-134.76-175.03-49.07-46.45-109.44-63.62-175.35-44.78-30.77,8.8-59.94,23.62-87.12,41.43Z"/>
      <path class="cls-9" d="M146.72,196.76c-20.46,15.48-39.67,32.6-57.57,50.1-33.79,33.03-75.81,58.2-105.16,95.63-16.95,21.62-28.93,47.35-32.99,74.52-4.99,33.38,1.66,70.62,25.44,95.68,10.34,10.9,23.21,19.17,36.84,25.5,38.86,18.05,82.3,20.24,124.36,23.1,44.12,3,83.76,9.29,125.56,24.79,36.4,13.49,72.21,29.3,110.21,37.27,91.02,19.09,191.71-17.32,235.65-102.34,12.62-24.43,19.18-52.41,15.87-79.7-3.48-28.78-17.5-55.16-32.93-79.7-42.76-67.98-97.61-129.4-159.48-180.51-56.81-46.93-123.74-61.17-194.06-35.82-32.83,11.83-63.47,30.1-91.73,51.48Z"/>
      <path class="cls-5" d="M123.24,187.5c-21.75,19.11-41.96,39.96-60.67,61.12-35.3,39.96-80.53,71.74-110.47,116.28-17.29,25.73-28.66,55.67-30.99,86.58-2.87,37.98,7.68,79.34,36.51,105.59,12.53,11.41,27.7,19.66,43.56,25.66,45.22,17.12,94.29,16,141.86,15.76,49.9-.26,95.03,3.56,143.35,17.55,42.08,12.19,83.68,27.03,127.1,32.87,104.01,13.99,214.33-35.28,256.77-134.58,12.2-28.53,17.27-60.56,11.3-91.01-6.29-32.1-24.23-60.64-43.62-86.98-53.72-72.98-120.51-137.59-194.35-190.02-67.8-48.14-144.3-58.65-221.36-24.33-35.98,16.02-68.95,39.1-99,65.5Z"/>
      <path class="cls-1" d="M107.04,180.69c-22.2,21.52-42.66,44.81-61.5,68.37-35.56,44.47-82.12,80.74-111.72,129.81-17.09,28.34-27.65,60.88-28.52,93.97-1.07,40.66,12.35,84.22,44.47,110.7,13.97,11.52,30.58,19.52,47.8,25.09,49.12,15.89,101.4,12.12,152.13,9.37,53.21-2.89,101.54-1.18,153.81,11.21,45.52,10.79,90.67,24.44,137.28,28.39,111.66,9.46,226.75-48.86,266.81-157,11.51-31.07,15.24-65.49,7.28-97.66-8.39-33.9-29.03-63.4-51.09-90.48-61.12-75.02-135.74-140.43-217.24-192.47-74.83-47.79-156.98-54.99-237.36-14.35-37.53,18.98-71.49,45.32-102.15,75.05Z"/>
      <path class="cls-7" d="M56.75,149.67c-23.69,25.43-45.34,52.74-65.15,80.26-37.39,51.95-87.6,95.32-118.03,152.11-17.58,32.8-27.57,69.92-26.66,107.12,1.12,45.71,18.67,93.84,56.24,121.75,16.34,12.13,35.44,20.17,55.1,25.44,56.06,15.04,114.53,7.83,171.33,1.85,59.58-6.28,113.94-7.12,173.31,3.82,51.72,9.52,103.19,22.27,155.75,24.05,125.9,4.26,251.78-67.78,290.59-191.46,11.15-35.54,13.38-74.4,2.61-110.05-11.35-37.58-36.2-69.53-62.51-98.67-72.9-80.74-160.4-149.92-254.86-203.71-86.74-49.39-179.37-52.79-267.3-2.58-41.05,23.44-77.68,54.95-110.41,90.07Z"/>
      <path class="cls-8" d="M-8.4,130.39c-25.54,30.32-48.64,62.68-69.62,95.17-39.62,61.32-94.34,113.61-125.76,180.04-18.15,38.37-27.41,81.24-24.24,123.56,3.89,52.01,26.64,105.84,71.04,135.48,19.3,12.89,41.53,20.95,64.22,25.83,64.72,13.92,130.93,2.37,195.29-7.7,67.51-10.56,129.39-14.63,197.66-5.57,59.47,7.89,118.83,19.46,178.8,18.48,143.67-2.35,282.95-91.63,320.09-234.76,10.67-41.13,10.98-85.52-3.33-125.52-15.09-42.17-45.22-77.13-76.86-108.83-87.67-87.81-191.31-161.61-302.01-217.47-101.64-51.29-207.36-49.87-304.66,12.37C66.79,50.51,26.87,88.5-8.4,130.39Z"/>
      <path class="cls-10" d="M-62.05,89.74c-28.26,36.35-53.61,74.95-76.49,113.59-43.2,72.96-104.34,136.11-137.8,214.63-19.32,45.35-28.13,95.52-22.54,144.49,6.87,60.18,35.7,121.62,88.57,154.02,22.99,14.08,49.14,22.43,75.7,27.07,75.74,13.23,152.05-3.18,226.29-17.78,77.87-15.31,149.5-22.83,229.14-15.41,69.37,6.46,138.78,17.21,208.34,13.36,166.63-9.23,324.23-119.14,360.85-286.92,10.52-48.21,8.87-99.75-9.55-145.52-19.42-48.25-55.97-87.47-94.13-122.82-105.71-97.94-229.33-178.89-360.33-238.72-120.28-54.93-242.91-48.49-353.01,28.14C21.6-6.36-23.01,39.54-62.05,89.74Z"/>
    </g>
  </g>
</svg>