<?xml version="1.0" encoding="UTF-8"?>
<svg xmlns="http://www.w3.org/2000/svg" version="1.1" viewBox="0 0 595.28 841.89">
  <defs>
    <style>
      .cls-1 {
        stroke: #009edc;
        stroke-width: 1.18px;
      }

      .cls-1, .cls-2, .cls-3, .cls-4, .cls-5, .cls-6, .cls-7, .cls-8, .cls-9, .cls-10, .cls-11, .cls-12, .cls-13, .cls-14, .cls-15, .cls-16, .cls-17, .cls-18, .cls-19, .cls-20, .cls-21, .cls-22, .cls-23, .cls-24, .cls-25, .cls-26, .cls-27, .cls-28, .cls-29, .cls-30, .cls-31, .cls-32, .cls-33, .cls-34 {
        fill: none;
        stroke-miterlimit: 10;
      }

      .cls-2 {
        stroke: #da63a5;
      }

      .cls-2, .cls-7, .cls-23 {
        stroke-width: .64px;
      }

      .cls-3 {
        stroke: #0288ca;
        stroke-width: 1.05px;
      }

      .cls-4 {
        stroke: #00b2a7;
        stroke-width: 1.73px;
      }

      .cls-5 {
        stroke: #6260ab;
      }

      .cls-5, .cls-33 {
        stroke-width: .59px;
      }

      .cls-6 {
        stroke: #c65ca3;
      }

      .cls-6, .cls-17 {
        stroke-width: .5px;
      }

      .cls-7 {
        stroke: #4963ae;
      }

      .cls-8 {
        stroke: #e184b6;
      }

      .cls-8, .cls-14 {
        stroke-width: .86px;
      }

      .cls-9 {
        stroke: #f48daf;
      }

      .cls-9, .cls-20, .cls-29 {
        stroke-width: .91px;
      }

      .cls-10 {
        stroke: #b078b3;
      }

      .cls-10, .cls-16, .cls-25 {
        stroke-width: .77px;
      }

      .cls-11 {
        stroke: #00b3c7;
        stroke-width: 1.45px;
      }

      .cls-12 {
        stroke: #f174ac;
      }

      .cls-12, .cls-22 {
        stroke-width: .82px;
      }

      .cls-13 {
        stroke: #8069ae;
      }

      .cls-13, .cls-27 {
        stroke-width: .68px;
      }

      .cls-14 {
        stroke: #f17cb1;
      }

      .cls-15 {
        stroke: #f490a4;
      }

      .cls-15, .cls-26 {
        stroke-width: .95px;
      }

      .cls-16 {
        stroke: #436bb3;
      }

      .cls-17 {
        stroke: #4c5eaa;
      }

      .cls-18 {
        stroke: #00b199;
        stroke-width: 1.86px;
      }

      .cls-19 {
        stroke: #9871b2;
      }

      .cls-19, .cls-32 {
        stroke-width: .73px;
      }

      .cls-20 {
        stroke: #f283ac;
      }

      .cls-21 {
        stroke: #00b08d;
        stroke-width: 2px;
      }

      .cls-22 {
        stroke: #c97eb5;
      }

      .cls-23 {
        stroke: #6f64ac;
      }

      .cls-24 {
        stroke: #00aed6;
        stroke-width: 1.32px;
      }

      .cls-25 {
        stroke: #f171ab;
      }

      .cls-26 {
        stroke: #f48ba3;
      }

      .cls-27 {
        stroke: #e367a7;
      }

      .cls-28 {
        stroke: #f5949b;
      }

      .cls-29 {
        stroke: #3677bc;
      }

      .cls-30 {
        stroke: #00b3b5;
        stroke-width: 1.59px;
      }

      .cls-31 {
        stroke: #cc5da3;
      }

      .cls-31, .cls-34 {
        stroke-width: .55px;
      }

      .cls-32 {
        stroke: #ec6ca9;
      }

      .cls-33 {
        stroke: #d360a4;
      }

      .cls-34 {
        stroke: #555fab;
      }
    </style>
  </defs>
  <!-- Generator: Adobe Illustrator 28.6.0, SVG Export Plug-In . SVG Version: 1.2.0 Build 709)  -->
  <g>
    <g id="Layer_1">
      <g>
        <path class="cls-6" d="M-213,301.93c13.19-8.29,30.04,1.88,41.54,12.38,11.51,10.5,25.73,22.7,40.63,18.17,12.15-3.7,19.12-17.46,31.27-21.15,13.32-4.05,26.55,5.35,37.92,13.39,14.92,10.55,32.27,19.98,50.45,18.15,10.72-1.08,21-4.93,30.93-9.1,66.57-27.97,92.14-26.75,134.26,6.96,35.35,28.3,70.59,23.5,112.05,5.31,10.26-4.5,34.81-4.97,45.94-6.19,16.87-1.86,34.35,30.41,50.8,26.25,8.91-2.25,15.45-11.24,24.58-12.31,87.89-10.24,55.51,89.48,74.63,109.9,19.13,20.41,32.74,46.04,54.61,63.48,26.94,21.48,65.3,27.66,97.62,15.73"/>
        <path class="cls-31" d="M-212.91,295.6c13.48-7.02,30.4,2.42,42.43,11.84,5.56,4.33,11.65,8.89,18.03,12.11,7.47,3.76,15.36,5.66,23.43,3.06,12.2-3.93,19.67-17.11,31.88-20.99,10.95-3.48,21.87,1.3,31.93,7.2,2.28,1.32,4.47,2.74,6.64,4.04,16.53,9.89,33.48,18.38,50.65,18.71,10.3.2,19.96-2.3,30.18-5.91,34.94-12.34,59.51-18.94,80.73-18.22,17.81.6,33.99,4.72,53.29,19.12,7.77,5.8,15.57,10.41,23.42,13.25,9.94,3.6,19.64,4.48,29.81,4.1,18-.72,36.78-5.14,56.78-12.03,10.15-3.49,33.47-2.95,44.58-3.44,16.62-.74,33.86,29.27,50.21,25.89,8.79-1.82,15.42-9.88,24.42-10.8,11.65-1.22,21.28-.73,29.25,1.15,31.33,7.4,35.88,37.3,39.7,62.75,2.18,14.54,3.92,27.52,10.27,33.64,19.54,18.87,33.62,43.55,55.41,60.51,26.87,20.92,64.14,27.82,96.15,16.62"/>
        <path class="cls-33" d="M-212.82,289.27c13.77-5.75,30.74,3,43.32,11.3,5.82,3.84,12.13,7.77,18.67,10.45,7.6,3.11,15.54,4.48,23.63,1.73,12.26-4.17,20.22-16.76,32.49-20.83,11.02-3.66,22.03.28,32.37,5.48,2.35,1.18,4.6,2.47,6.84,3.6,18.23,9.18,34.74,17.96,50.84,19.28,9.91.81,18.9.31,29.42-2.72,34.55-9.95,59.96-18.08,81.66-17.06,17.08.8,33.35-1.06,52.12,11.88,7.73,5.33,15.51,9.91,23.32,12.36,9.82,3.08,19.08,3.03,29.01,2.25,17.72-1.38,36.28-4.51,55.62-9.27,10.07-2.48,32.12-.94,43.21-.7,16.35.36,33.37,28.13,49.62,25.52,8.66-1.39,15.39-8.49,24.26-9.28,11.31-1.01,20.82-.71,28.83.84,30.59,5.92,36.93,31.3,42.54,53.9,3.19,12.87,5.74,24.62,12.44,30.46,19.91,17.36,34.51,41.05,56.21,57.54,26.8,20.36,62.99,27.97,94.68,17.52"/>
        <path class="cls-2" d="M-212.73,283.53c14.06-4.48,31.09,3.55,44.21,10.76,6.09,3.35,12.62,6.65,19.31,8.79,7.73,2.47,15.72,3.29,23.82.39,12.31-4.41,20.78-16.41,33.1-20.67,11.09-3.84,22.2-.76,32.82,3.76,2.43,1.03,4.74,2.2,7.05,3.17,20,8.43,36.05,17.03,51.04,19.84,9.56,1.79,17.82,2.9,28.67.47,34.09-7.65,60.34-13.76,82.59-15.9,16.35-1.57,32.74-6.86,50.95,4.64,7.69,4.86,15.44,9.43,23.23,11.48,9.7,2.56,18.52,1.55,28.21.4,17.43-2.07,35.85-3.82,54.47-6.52,10.04-1.45,30.76,1.06,41.84,2.05,16.08,1.44,32.87,26.98,49.03,25.15,8.53-.96,15.36-7.11,24.1-7.77,10.97-.83,20.35-.68,28.4.52,29.84,4.47,37.96,25.24,45.39,45.05,4.19,11.17,7.53,21.73,14.6,27.28,20.22,15.87,35.4,38.55,57,54.57,26.73,19.8,61.83,28.12,93.2,18.41"/>
        <path class="cls-27" d="M-212.64,279.35c14.36-3.2,31.46,4.11,45.09,10.22,6.36,2.85,13.1,5.53,19.95,7.13,7.85,1.83,15.89,2.1,24.02-.94,12.37-4.64,21.33-16.06,33.71-20.51,11.16-4.02,22.37-1.81,33.26,2.03,2.51.88,4.89,1.91,7.25,2.73,21.81,7.6,37.38,16.18,51.23,20.41,9.23,2.81,16.72,5.47,27.92,3.66,33.59-5.45,60.7-11.05,83.52-14.74,15.59-2.52,32.15-12.67,49.77-2.59,7.67,4.39,15.37,8.94,23.14,10.6,9.57,2.04,17.95.07,27.41-1.45,17.14-2.76,35.51-5.09,53.31-3.76,10.01.74,29.41,3.05,40.47,4.8,15.8,2.5,32.38,25.82,48.44,24.79,8.4-.54,15.33-5.74,23.94-6.26,10.63-.64,19.88-.64,27.97.21,29.07,3.07,38.93,19.13,48.23,36.2,5.15,9.45,9.32,18.84,16.77,24.09,20.49,14.42,36.28,36.06,57.8,51.6,26.67,19.24,60.68,28.28,91.73,19.3"/>
        <path class="cls-32" d="M-212.55,275.2c14.65-1.93,31.82,4.66,45.98,9.68,6.63,2.35,13.58,4.42,20.59,5.46,7.98,1.19,16.07.92,24.21-2.27,12.43-4.88,21.88-15.72,34.32-20.35,11.23-4.19,22.54-2.86,33.7.31,2.58.73,5.04,1.61,7.46,2.3,23.66,6.7,38.71,15.42,51.43,20.97,8.9,3.88,15.62,8.01,27.17,6.84,33.06-3.34,61.06-8.24,84.45-13.57,14.83-3.38,31.59-18.51,48.6-9.83,7.65,3.9,15.31,8.46,23.05,9.71,9.45,1.53,17.39-1.41,26.61-3.31,16.86-3.47,35.13-2.21,52.16-1.01,10.05.71,28.05,5.02,39.11,7.55,15.53,3.54,31.88,24.66,47.85,24.42,8.27-.12,15.3-4.36,23.78-4.74,10.29-.46,19.41-.59,27.54-.1,28.3,1.7,39.81,12.98,51.08,27.35,6.05,7.72,11.09,15.97,18.94,20.91,20.71,13.02,37.17,33.56,58.6,48.63,26.6,18.69,59.52,28.43,90.26,20.19"/>
        <path class="cls-25" d="M-212.46,271.1c14.94-.66,32.19,5.2,46.87,9.14,6.91,1.85,14.06,3.31,21.23,3.8,8.1.56,16.24-.27,24.41-3.61,12.48-5.12,22.43-15.37,34.93-20.19,11.3-4.37,22.72-3.91,34.15-1.41,2.66.58,5.19,1.31,7.66,1.86,25.52,5.72,40.02,14.74,51.62,21.53,8.56,5.01,14.51,10.52,26.41,10.03,32.51-1.33,61.44-5.32,85.37-12.41,14.08-4.17,31.04-24.38,47.43-17.06,7.64,3.41,15.24,7.98,22.95,8.83,9.32,1.02,16.83-2.89,25.81-5.16,16.57-4.17,34.79-1.26,51,1.74,10.07,1.87,26.69,6.99,37.74,10.29,15.25,4.57,31.38,23.49,47.26,24.06,8.14.29,15.27-2.99,23.62-3.23,9.95-.28,18.95-.9,27.12-.42,27.46,1.63,40.57,6.86,53.93,18.5,6.89,6,12.85,13.12,21.11,17.72,20.91,11.65,38.06,31.06,59.4,45.66,26.53,18.13,58.37,28.58,88.78,21.08"/>
        <path class="cls-12" d="M-212.37,267.08c15.23.61,32.55,5.74,47.76,8.6,7.18,1.35,14.53,2.2,21.87,2.14,8.22-.07,16.42-1.45,24.61-4.94,12.54-5.36,22.98-15.02,35.54-20.04,11.37-4.55,22.9-4.97,34.59-3.13,2.74.43,5.35,1,7.87,1.43,27.39,4.66,41.28,14.13,51.82,22.1,8.18,6.19,13.41,13.87,25.66,13.22,31.93-1.69,61.86-2.28,86.3-11.25,13.36-4.9,30.52-30.28,46.26-24.3,7.64,2.9,15.16,7.51,22.86,7.94,9.19.52,16.26-4.38,25.01-7.01,16.28-4.89,34.44-.22,49.84,4.5,10.08,3.09,25.34,8.94,36.37,13.04,14.99,5.58,30.88,22.31,46.67,23.69,8.01.7,15.24-1.63,23.45-1.72,9.61-.11,18.46-.46,26.69-.73,26.72-.89,41.21.85,56.77,9.65,7.66,4.34,14.6,10.28,23.28,14.54,21.08,10.34,38.94,28.57,60.19,42.69,26.46,17.57,57.21,28.74,87.31,21.98"/>
        <path class="cls-14" d="M-212.28,265.72c15.53,1.89,32.92,6.28,48.65,8.06,7.45.84,15.01,1.1,22.51.48,8.34-.69,16.6-2.64,24.8-6.28,12.59-5.59,23.53-14.67,36.15-19.88,11.44-4.73,23.08-6.03,35.03-4.85,2.82.28,5.5.68,8.08.99,29.25,3.52,42.47,13.55,52.01,22.66,7.75,7.41,12.29,15.43,24.91,16.41,31.44,2.43,62.35.87,87.23-10.08,12.67-5.58,30-36.22,45.09-31.54,7.65,2.38,15.1,6.94,22.77,7.06,9.06.14,15.7-5.88,24.21-8.86,15.99-5.61,34.03.9,48.69,7.25,10.05,4.36,24,10.88,35.01,15.79,14.73,6.57,30.38,21.13,46.08,23.33,7.88,1.1,15.21-.26,23.29-.2,9.27.07,17.99-.37,26.26-1.04,25.95-2.12,41.82-5.01,59.62.8,8.43,2.75,16.34,7.47,25.45,11.35,21.24,9.06,39.83,26.07,60.99,39.72,26.39,17.01,56.06,28.89,85.84,22.87"/>
        <path class="cls-20" d="M-212.19,264.88c15.82,3.16,33.28,6.81,49.53,7.52,7.73.34,15.5,0,23.15-1.18,8.47-1.31,16.77-3.83,25-7.61,12.65-5.83,24.09-14.32,36.76-19.72,11.51-4.91,23.25-7.1,35.48-6.57,2.9.13,5.65.36,8.28.56,31.11,2.31,43.6,12.99,52.2,23.23,7.26,8.64,11.2,17.84,24.15,19.6,30.95,4.2,62.93,4.14,88.16-8.92,12.02-6.22,29.5-42.2,43.92-38.77,7.66,1.82,15.03,6.58,22.68,6.17,8.94-.47,15.13-7.37,23.41-10.72,15.69-6.34,33.55,2.06,47.53,10.01,9.97,5.67,22.66,12.81,33.64,18.54,14.48,7.56,29.89,19.93,45.49,22.96,7.75,1.51,15.18,1.1,23.13,1.31,8.93.24,17.52-.27,25.83-1.36,25.18-3.31,42.48-10.71,62.46-8.05,9.22,1.23,18.08,4.68,27.61,8.17,21.4,7.84,40.71,23.57,61.79,36.75,26.32,16.45,54.9,29.05,84.36,23.76"/>
        <path class="cls-26" d="M-212.09,264.04c16.11,4.43,33.65,7.32,50.42,6.98,8-.18,15.98-1.09,23.79-2.84,8.59-1.93,16.95-5.01,25.19-8.95,12.7-6.07,24.64-13.97,37.37-19.56,11.58-5.08,23.43-8.19,35.92-8.29,2.98-.03,5.8.04,8.49.13,32.94,1.04,44.67,12.42,52.4,23.79,6.72,9.88,10.13,20.21,23.4,22.78,30.5,5.92,63.61,7.51,89.09-7.76,11.41-6.84,28.98-48.24,42.75-46.01,7.67,1.24,14.96,6.12,22.58,5.29,8.82-.96,14.55-8.89,22.61-12.57,15.38-7.1,33,3.23,46.38,12.76,9.84,7.01,21.34,14.73,32.27,21.29,14.24,8.54,29.4,18.73,44.9,22.6,7.62,1.9,15.15,2.44,22.97,2.82,8.6.39,17.06-.15,25.4-1.67,24.43-4.46,43.24-16.33,65.31-16.9,10.06-.26,19.82,1.91,29.78,4.98,21.56,6.65,41.6,21.08,62.59,33.78,26.25,15.89,53.75,29.2,82.89,24.65"/>
        <path class="cls-28" d="M-212,263.17c24.24,8.43,51.1,9.11,75.74,1.94,34.48-10.04,63.88-37.53,99.73-39.7,75.94-4.58,53.84,42.42,83.94,50.02,30.1,7.59,64.42,10.97,90.01-6.59,10.86-7.45,28.45-54.31,41.58-53.25,7.68.62,14.89,5.66,22.49,4.41,8.69-1.44,13.99-10.37,21.81-14.42,15.09-7.81,32.37,4.4,45.22,15.51,34.67,30,78.37,59.13,123,48.62,23.71-5.58,44.1-21.93,68.15-25.75,62.58-9.94,113.93,66.46,176.75,58.16"/>
        <path class="cls-15" d="M-208.98,240.4c13.56,6.51,29.97,10.97,47.26,10.55,8.47-.2,16.91-1.39,25.13-3.44,23.42-5.83,44.83-19.96,65.7-29.02,11.53-5.01,23.44-9.02,35.96-9.73,5.03-.28,9.66-.25,13.92.05,8.44.59,15.23,2.17,21.03,4.11,25.24,8.42,27.97,26.94,38.71,37.9,3.23,3.29,7.18,5.89,12.81,7.21,25.99,6.01,54.79,8.93,79.08-.43,4.24-1.63,8.41-3.8,12.49-6.39,12.18-7.72,31.62-51.67,44.64-49.8,7.15,1.03,13.8,6.4,20.73,6.09,7.94-.35,12.73-7.85,19.92-10.68,7.21-2.84,15.09-.76,22.68,3.35,7.09,3.83,13.88,9.65,19.86,15.13,7.55,6.92,15.62,13.73,24.18,19.94,16.01,11.61,33.89,20.97,51.77,24.99,15.12,3.39,30.43,3.34,45.96-1.06,10.46-3.01,20.36-7.87,30.45-12.23,8.75-3.78,16.89-7.27,25.78-10.38,3.71-1.3,7.54-2.55,11.57-3.44,7.5-1.66,15-1.84,22.61-1.26,17.16,1.31,30.75,7.51,46.36,15.67,6.5,3.37,12.09,6.41,18.49,10.15,28.7,16.83,58.23,32.56,89.57,27.26"/>
        <path class="cls-9" d="M-205.96,217.98c10.84,7.35,26.19,14.11,43.59,14.63,8.55.27,17.09-.61,25.45-2.36,24.32-5.09,46.77-19.34,67.1-27.94,11.71-4.95,23.87-9.2,36.48-9.86,5.06-.27,9.74-.13,14.07.35,8.35.93,14.98,3.03,20.86,5.25,24.25,9.17,29.06,26.11,40.84,36.27,3.49,3.01,7.61,5.43,13.25,6.63,26.42,5.64,55.46,7.99,80.34-.87,4.24-1.51,8.51-3.66,12.8-6.18,13.53-7.97,34.74-49.07,47.69-46.36,6.61,1.38,12.65,7.13,18.97,7.78,7.13.73,11.49-5.34,18.02-6.94,6.55-1.6,13.8,1.2,20.85,5.54,6.76,4.17,13.2,10.24,19.02,15.9,7.35,7.13,15.27,14.08,23.84,20.32,15.96,11.62,34.37,20.42,52.12,23.05,14.91,2.21,29.74.85,44.86-4.24,10.28-3.46,20.07-8.54,30.28-12.52,9.05-3.53,16.92-6.43,25.91-9.84,3.54-1.35,7.25-2.84,11.25-3.99,7.16-2.06,14.55-2.15,22.21-2.52,18.5-.88,30.35,5.81,46.49,13.83,6.87,3.41,11.95,5.89,18.66,9.78,28.64,16.69,58.93,30.79,89.92,24.39"/>
        <path class="cls-8" d="M-202.93,198.43c8.11,8.2,22.41,17.26,39.92,18.71,8.62.74,17.28.19,25.77-1.27,25.23-4.33,48.72-18.71,68.5-26.86,11.89-4.9,24.3-9.37,37.01-9.99,5.08-.25,9.82-.01,14.22.66,8.25,1.26,14.73,3.87,20.68,6.39,23.27,9.85,30.13,25.28,42.98,34.65,3.74,2.73,8.03,4.95,13.69,6.05,26.87,5.23,56.12,7.05,81.59-1.31,4.25-1.39,8.63-3.51,13.11-5.97,14.89-8.2,37.82-46.52,50.75-42.91,6.06,1.69,11.43,7.83,17.22,9.46,6.27,1.77,10.27-2.83,16.12-3.2,5.9-.37,12.51,3.16,19.02,7.74,6.42,4.51,12.51,10.83,18.18,16.67,7.14,7.34,14.93,14.44,23.5,20.7,15.91,11.62,34.83,19.88,52.48,21.12,14.69,1.04,29.04-1.67,43.76-7.43,10.09-3.95,19.79-9.19,30.12-12.81,9.37-3.28,16.95-5.57,26.04-9.31,3.38-1.39,6.95-3.12,10.93-4.54,6.83-2.44,14.09-3.38,21.81-3.77,19.9-1.01,29.97,4.08,46.63,12,7.24,3.44,11.82,5.38,18.84,9.41,28.58,16.56,59.63,29.02,90.27,21.51"/>
        <path class="cls-22" d="M-199.91,177.98c5.39,9.05,18.63,20.4,36.25,22.79,8.7,1.21,17.47.99,26.08-.19,26.14-3.55,50.68-18.08,69.9-25.78,12.07-4.84,24.72-9.55,37.54-10.12,5.11-.23,9.89.1,14.37.97,8.16,1.58,14.48,4.7,20.5,7.53,22.3,10.47,31.18,24.46,45.11,33.02,3.99,2.46,8.46,4.48,14.12,5.48,27.32,4.81,56.77,6.09,82.85-1.74,4.25-1.28,8.74-3.35,13.41-5.76,16.26-8.41,40.87-44.03,53.81-39.47,5.52,1.95,10.17,8.46,15.46,11.15,5.36,2.72,9.07-.31,14.23.54,5.29.87,11.22,5.15,17.19,9.93,6.09,4.88,11.83,11.42,17.34,17.44,6.94,7.55,14.58,14.79,23.15,21.08,15.85,11.62,35.29,19.02,52.83,19.19,14.47.14,28.35-4.2,42.66-10.62,9.89-4.43,19.51-9.84,29.96-13.1,9.68-3.01,16.98-4.71,26.16-8.78,3.21-1.42,6.65-3.39,10.61-5.1,6.49-2.79,13.64-4.19,21.42-5.02,21.28-2.27,29.59,2.35,46.77,10.16,7.62,3.46,11.69,4.86,19.01,9.05,28.52,16.42,60.33,27.25,90.62,18.64"/>
        <path class="cls-10" d="M-196.89,154.76c2.67,9.9,14.85,23.54,32.59,26.87,8.77,1.68,17.66,1.79,26.4.9,27.06-2.76,52.63-17.43,71.3-24.7,12.26-4.77,25.15-9.73,38.06-10.25,5.14-.21,9.97.21,14.52,1.27,8.06,1.89,14.24,5.52,20.33,8.67,21.36,11.04,32.22,23.66,47.24,31.39,4.24,2.18,8.88,4,14.56,4.9,27.77,4.38,57.42,5.11,84.1-2.18,4.25-1.16,8.86-3.19,13.72-5.56,17.64-8.6,43.91-41.62,56.86-36.02,4.98,2.15,8.9,9,13.7,12.83,4.47,3.56,7.9,2.25,12.33,4.28,4.69,2.15,9.92,7.15,15.35,12.13,5.74,5.26,11.14,12.01,16.5,18.2,6.73,7.76,14.24,15.15,22.81,21.46,15.8,11.63,35.75,18.82,53.19,17.25,14.25-1.28,27.65-6.74,41.56-13.81,9.7-4.93,19.23-10.49,29.8-13.39,10-2.75,17.02-3.83,26.29-8.24,3.05-1.45,6.35-3.65,10.29-5.65,6.16-3.12,13.18-5.03,21.02-6.27,22.66-3.59,29.22.61,46.9,8.32,8,3.49,11.56,4.35,19.19,8.68,28.45,16.28,61.03,25.49,90.97,15.77"/>
        <path class="cls-19" d="M-193.86,131.55c-.06,10.74,11.07,26.68,28.92,30.95,8.85,2.15,17.85,2.6,26.72,1.99,27.98-1.95,54.59-16.78,72.71-23.62,12.45-4.7,25.58-9.9,38.59-10.39,5.17-.19,10.05.31,14.67,1.58,7.97,2.19,14,6.33,20.15,9.81,20.43,11.56,33.25,22.87,49.38,29.77,4.49,1.92,9.31,3.53,14.99,4.32,28.22,3.95,58.06,4.13,85.36-2.62,4.25-1.05,8.98-3.02,14.02-5.35,19.02-8.78,46.97-39.3,59.92-32.57,4.45,2.31,7.7,9.46,11.94,14.52,3.63,4.33,6.71,4.85,10.44,8.02,4.08,3.47,8.6,9.17,13.52,14.32,5.39,5.65,10.45,12.6,15.66,18.97,6.53,7.98,13.9,15.5,22.47,21.84,15.74,11.63,36.21,18.32,53.54,15.32,14.02-2.43,26.95-9.28,40.46-16.99,9.5-5.42,18.96-11.12,29.64-13.68,10.32-2.47,17.06-2.93,26.42-7.71,2.89-1.47,6.06-3.9,9.97-6.2,5.84-3.43,12.73-5.89,20.63-7.53,24.03-4.97,28.85-1.14,47.04,6.48,8.38,3.51,11.43,3.83,19.36,8.31,28.39,16.15,61.73,23.72,91.32,12.89"/>
        <path class="cls-13" d="M-190.61,110.73c-2.78,11.59,7.29,29.83,25.25,35.04,8.93,2.62,18.04,3.42,27.03,3.07,28.9-1.12,56.56-16.11,74.11-22.54,12.63-4.63,26.01-10.08,39.11-10.52,5.19-.18,10.13.41,14.82,1.89,7.88,2.49,13.77,7.12,19.98,10.95,19.53,12.05,34.28,22.11,51.51,28.14,4.73,1.66,9.73,3.05,15.43,3.74,28.68,3.51,58.7,3.12,86.62-3.06,4.25-.94,9.1-2.85,14.33-5.14,20.42-8.94,50.09-37.09,62.97-29.13,3.94,2.43,6.59,9.88,10.18,16.2,2.88,5.07,5.48,7.47,8.54,11.76,3.43,4.81,7.28,11.2,11.69,16.52,5.02,6.06,9.77,13.18,14.82,19.74,6.33,8.19,13.55,15.86,22.12,22.21,15.69,11.64,36.67,17.82,53.9,13.38,13.8-3.56,26.24-11.83,39.37-20.18,9.3-5.92,18.69-11.75,29.48-13.96,10.64-2.19,17.11-2.02,26.55-7.17,2.73-1.49,5.77-4.14,9.64-6.75,5.53-3.73,12.26-6.77,20.23-8.78,25.38-6.4,28.47-2.89,47.18,4.64,8.76,3.53,11.3,3.31,19.54,7.94,28.33,16.01,62.43,21.95,91.67,10.02"/>
        <path class="cls-23" d="M-187.01,90.39c-5.5,12.44,3.51,32.97,21.58,39.12,9,3.09,18.23,4.24,27.35,4.16,29.82-.27,58.52-15.44,75.51-21.46,12.83-4.55,26.44-10.25,39.64-10.65,5.22-.16,10.21.5,14.97,2.19,7.79,2.77,13.55,7.9,19.8,12.09,18.66,12.5,35.31,21.35,53.64,26.52,4.97,1.4,10.16,2.57,15.87,3.17,29.13,3.06,59.33,2.1,87.87-3.49,4.25-.83,9.22-2.67,14.63-4.93,21.81-9.09,53.3-35,66.03-25.68,3.45,2.53,5.58,10.3,8.42,17.89,2.18,5.83,4.22,10.09,6.64,15.5,2.75,6.15,5.94,13.24,9.85,18.71,4.63,6.47,9.08,13.77,13.98,20.51,6.12,8.4,13.21,16.21,21.78,22.59,15.64,11.64,37.14,17.34,54.25,11.45,13.59-4.68,25.53-14.38,38.27-23.37,9.1-6.42,18.41-12.37,29.31-14.25,10.96-1.9,17.17-1.09,26.68-6.64,2.57-1.5,5.5-4.37,9.32-7.3,5.23-4.01,11.79-7.65,19.83-10.03,26.7-7.89,28.11-4.64,47.32,2.8,9.14,3.54,11.16,2.8,19.71,7.57,28.27,15.88,63.13,20.18,92.02,7.14"/>
        <path class="cls-5" d="M-183.17,69.97c-8.23,13.28-.27,36.11,17.91,43.2,9.08,3.56,18.42,5.07,27.67,5.24,30.73.59,60.49-14.76,76.91-20.38,13.02-4.46,26.87-10.43,40.17-10.78,5.25-.14,10.3.59,15.12,2.5,7.71,3.05,13.34,8.67,19.63,13.23,17.82,12.92,36.34,20.62,55.77,24.89,5.22,1.15,10.59,2.09,16.3,2.59,29.58,2.61,59.97,1.06,89.13-3.93,4.25-.73,9.34-2.5,14.94-4.72,23.22-9.22,56.65-33.04,69.09-22.24,3,2.6,4.63,10.77,6.67,19.57,1.53,6.63,2.95,12.68,4.75,19.24,2.05,7.47,4.58,15.28,8.02,20.91,4.22,6.9,8.39,14.36,13.14,21.27,5.92,8.61,12.87,16.57,21.44,22.97,15.58,11.64,37.62,16.87,54.6,9.51,13.38-5.8,24.82-16.94,37.17-26.56,8.9-6.93,18.14-12.98,29.15-14.54,11.28-1.6,17.25-.14,26.81-6.1,2.42-1.51,5.24-4.59,9-7.85,4.95-4.29,11.31-8.55,19.44-11.28,27.99-9.42,27.75-6.44,47.45.96,9.53,3.54,11.03,2.28,19.89,7.2,28.21,15.74,63.83,18.42,92.37,4.27"/>
        <path class="cls-34" d="M-179.15,49.49c-10.95,14.13-4.05,39.25,14.24,47.28,9.15,4.03,18.61,5.9,27.99,6.33,31.65,1.47,62.46-14.08,78.31-19.3,13.21-4.36,27.3-10.6,40.69-10.91,5.28-.12,10.39.68,15.27,2.81,7.63,3.33,13.14,9.43,19.45,14.37,17.01,13.33,37.38,19.89,57.91,23.26,5.47.9,11.01,1.6,16.74,2.01,30.04,2.11,60.6.01,90.38-4.37,4.25-.62,9.46-2.32,15.24-4.51,24.62-9.35,60.2-31.19,72.14-18.79,2.58,2.67,3.71,11.27,4.91,21.26.9,7.46,1.67,15.26,2.85,22.98,1.34,8.78,3.2,17.33,6.19,23.11,3.79,7.33,7.71,14.95,12.3,22.04,5.72,8.82,12.52,16.92,21.09,23.35,15.53,11.65,38.11,16.41,54.96,7.58,13.18-6.9,24.08-19.52,36.07-29.75,8.68-7.45,17.87-13.59,28.99-14.83,11.6-1.29,17.34.83,26.94-5.57,2.27-1.51,4.98-4.8,8.68-8.4,4.68-4.56,10.83-9.45,19.04-12.54,29.26-10.99,27.38-8.19,47.59-.88,9.91,3.56,10.9,1.77,20.06,6.83,28.14,15.61,64.53,16.65,92.72,1.39"/>
        <path class="cls-17" d="M-174.99,28.96c-13.67,14.98-7.83,42.39,10.57,51.36,40.82,19.89,88.28-4.55,108.02-10.81C-37.71,63.59-17.26,53.25.23,61.59c7.56,3.6,12.96,10.17,19.28,15.51,16.23,13.72,38.42,19.18,60.04,21.64,36.08,4.1,72.7,1.08,108.81-3.37,22.77-2.81,76.96-36.97,90.75-19.65,5.69,7.14.66,56.8,8.46,74.97,7.47,17.41,16.73,34.89,32.21,46.54,15.47,11.65,38.61,15.95,55.31,5.64,22.48-13.87,37.2-45.86,63.8-48.05,11.92-.98,17.45,1.82,27.06-5.03,4.73-3.37,11.9-16.51,27-22.74,30.5-12.59,27-9.93,47.73-2.72,10.28,3.58,10.77,1.25,20.24,6.46,28.08,15.47,65.23,14.88,93.07-1.48"/>
        <path class="cls-7" d="M650.67,131.61c-25.06,12.84-56.62,12.3-80.91-.45-2.09-1.09-4.1-2.3-6.09-3.55-8.43-5.29-8.79-3.49-17.99-7.21-16.53-6.69-15.49-9.78-35.27-3.39-2.44.79-5.24,1.64-8.4,2.76-14.26,5.05-21.63,16.66-26.65,19.8-6.01,3.76-10.33,4.36-15.67,4.42-3.12.04-6.55-.05-10.77.32-16.58,1.5-28.73,14.21-41.16,26.13-7.01,6.7-14.07,13.13-21.96,17.31-9.02,4.81-19.73,5.38-29.89,2.89-8.14-2-15.92-5.95-22.4-11.19-1.38-1.11-2.71-2.27-4-3.48-12.31-11.46-20.66-26.61-28.05-41.11-3.66-7.17-5.48-19.16-6.58-30.99-1.51-16.24-2.07-32.05-5.54-35.49-14.32-14.19-63.49,16.51-85.13,19.47-33.92,4.52-68.36,7.51-102.33,3.65-20.64-2.34-41.78-7.76-57.26-20.9-6.03-5.12-11.19-11.38-18.27-14.98-14.38-7.32-30.6-1.7-45.67,2.8-2.13.64-4.22,1.28-6.31,1.8-8.54,2.13-22.99,7.96-40.51,11.39-8.68,1.7-18.14,2.94-27.69,2.84-11.02-.12-22.24-2.09-33.01-7.1-17.65-8.2-23.89-33.12-12.38-46.67"/>
        <path class="cls-16" d="M647.4,133.84c-24.49,10.61-54.06,7.84-75.56-5.76-1.85-1.16-3.6-2.46-5.37-3.74-7.38-5.35-7.63-4.09-15.75-7.96-14.6-6.95-13.35-10.33-31.67-5.9-2.29.55-4.95,1.06-7.95,1.92-13.42,3.86-20.95,13.96-26.3,16.86-5.89,3.2-10.13,3.91-15.33,4.01-3.07.07-6.42.04-10.48.43-16.14,1.6-28.28,13.41-40.69,24-7.01,5.95-14.06,11.45-21.75,14.84-8.77,3.86-18.94,3.81-28.42.87-7.61-2.37-14.76-6.54-20.84-11.84-1.29-1.12-2.55-2.29-3.77-3.48-11.65-11.42-20.14-25.92-28.14-39.14-4.04-6.68-6.66-17.37-8.37-27.71-2.35-14.22-3.68-27.46-7.41-30.28-14.56-10.99-58.98,16.25-79.51,19.29-31.7,4.69-63.99,7.55-95.85,3.94-19.66-2.22-39.74-7.6-54.49-20.17-5.74-4.89-10.67-10.86-17.26-14.44-13.42-7.33-28.26-3.13-41.71.02-1.9.45-3.76.93-5.61,1.23-7.53,1.24-20.28,5.55-36.61,7.97-8.15,1.21-17.2,2.19-26.29,2.04-10.52-.18-21.22-2-31.51-6.54-16.9-7.43-23.53-29.85-14.19-41.99"/>
        <path class="cls-29" d="M644.19,135.98c-23.91,8.39-51.51,3.38-70.22-11.06-1.61-1.23-3.1-2.6-4.64-3.92-6.32-5.4-6.48-4.7-13.51-8.7-12.68-7.23-11.27-10.9-28.06-8.42-2.15.32-4.67.48-7.5,1.08-12.56,2.68-20.25,11.26-25.94,13.92-5.75,2.68-9.93,3.45-14.99,3.61-3.02.1-6.29.13-10.18.53-15.7,1.7-27.81,12.63-40.22,21.86-7.01,5.22-14.05,9.79-21.54,12.37-8.52,2.94-18.15,2.24-26.96-1.14-7.07-2.73-13.61-7.13-19.28-12.49-1.21-1.13-2.38-2.3-3.53-3.49-10.99-11.39-19.66-25.22-28.22-37.18-4.44-6.2-7.84-15.57-10.16-24.43-3.18-12.19-4.79-23.73-9.29-25.07-12.43-10.7-54.49,15.95-73.88,19.11-29.5,4.8-59.62,7.59-89.37,4.22-18.68-2.11-37.71-7.45-51.71-19.43-5.46-4.67-10.14-10.33-16.26-13.9-12.46-7.34-25.93-4.56-37.75-2.76-1.67.26-3.3.59-4.92.67-6.54.35-17.58,3.13-32.7,4.54-7.62.71-16.26,1.43-24.89,1.23-10.02-.24-20.2-1.92-30.02-5.98-16.15-6.66-23.18-26.58-16-37.3"/>
        <path class="cls-3" d="M641.08,138c-23.34,6.16-48.95-1.08-64.87-16.36-1.37-1.3-2.59-2.75-3.92-4.11-5.27-5.41-5.32-5.31-11.26-9.45-10.77-7.51-9.28-11.52-24.46-10.93-2.03.08-4.37-.1-7.04.24-11.69,1.51-19.53,8.59-25.59,10.98-5.57,2.2-9.73,3-14.65,3.21-2.97.14-6.16.21-9.89.64-15.26,1.77-27.36,11.84-39.75,19.73-7.02,4.47-14.03,8.12-21.32,9.89-8.26,2.01-17.36.68-25.49-3.16-6.54-3.1-12.45-7.72-17.72-13.14-1.12-1.14-2.21-2.31-3.29-3.49-10.33-11.35-19.22-24.52-28.31-35.22-4.86-5.71-9.02-13.75-11.95-21.15-4.01-10.14-6.26-19.45-11.16-19.86-11.98-8.5-49.99,15.65-68.26,18.93-27.29,4.9-55.25,7.62-82.89,4.51-17.7-1.99-35.67-7.29-48.94-18.7-5.17-4.44-9.62-9.79-15.25-13.37-11.51-7.32-23.59-6-33.79-5.53-1.44.07-2.85.25-4.23.11-5.61-.53-14.89.7-28.79,1.11-7.1.21-15.32.68-23.49.43-9.52-.3-19.18-1.83-28.52-5.42C-29.16,22.01-36.58,4.59-31.57-4.71"/>
        <path class="cls-1" d="M638.11,132.79c-22.76,3.94-46.36-5.57-59.53-21.66-1.13-1.38-2.08-2.88-3.19-4.29-4.22-5.38-4.17-5.93-9.02-10.19-8.86-7.8-7.37-12.26-20.86-13.44-1.92-.17-4.08-.67-6.59-.59-10.8.35-18.78,5.94-25.24,8.04-5.37,1.75-9.52,2.54-14.31,2.81-2.92.16-6.03.3-9.6.75-14.82,1.86-26.9,11.04-39.28,17.59-7.03,3.72-14.01,6.46-21.11,7.42-8,1.09-16.56-.89-24.03-5.17-6-3.46-11.28-8.33-16.16-13.78-1.03-1.15-2.04-2.32-3.06-3.5-9.66-11.31-18.81-23.81-28.39-33.26-5.29-5.22-10.18-11.91-13.74-17.87-4.82-8.07-7.73-15.17-13.03-14.65-11.53-6.29-45.49,15.34-62.64,18.75-25.08,4.99-50.87,7.66-76.41,4.79-16.72-1.87-33.64-7.13-46.17-17.96-4.88-4.22-9.1-9.26-14.24-12.83-10.56-7.33-21.25-7.45-29.83-8.31-1.21-.12-2.42-.11-3.54-.45-4.76-1.45-12.22-1.74-24.88-2.31-6.58-.3-14.38-.07-22.09-.37-9.01-.36-18.16-1.74-27.03-4.87C9.51,2.3,1.7-12.62,4.54-20.5"/>
        <path class="cls-24" d="M635.35,126c-22.19,1.71-43.8-10.02-54.18-26.97-.89-1.45-1.58-3.01-2.46-4.48-3.19-5.32-3.02-6.56-6.78-10.94-6.96-8.12-5.53-13.17-17.26-15.95-1.82-.43-3.78-1.25-6.14-1.43-9.91-.78-18.02,3.32-24.89,5.1-5.16,1.34-9.32,2.09-13.97,2.4-2.87.19-5.9.39-9.31.85-14.37,1.96-26.46,10.24-38.81,15.46-7.04,2.97-13.99,4.8-20.9,4.95-7.73.17-15.77-2.46-22.56-7.19-5.47-3.83-10.13-8.92-14.6-14.43-.94-1.16-1.88-2.33-2.82-3.51-9-11.27-18.45-23.06-28.48-31.29-5.75-4.71-11.3-10.05-15.52-14.59-5.57-5.98-9.19-10.89-14.9-9.45-11.08-4.09-40.99,15.02-57.02,18.56-22.88,5.06-46.5,7.7-69.93,5.08-15.74-1.76-31.6-6.98-43.39-17.23-4.59-4-8.57-8.73-13.23-12.29-9.6-7.34-18.91-8.89-25.87-11.08-.98-.31-2-.49-2.84-1.01-3.99-2.46-9.55-4.21-20.98-5.74-6.07-.81-13.44-.83-20.69-1.17-8.51-.42-17.13-1.66-25.53-4.31-13.9-4.35-22.11-16.78-21.43-23.24"/>
        <path class="cls-11" d="M632.85,118.93c-21.61-.51-41.24-14.48-48.84-32.27-.65-1.52-1.09-3.12-1.74-4.66-2.2-5.22-1.86-7.21-4.53-11.69-5.04-8.47-3.69-14.28-13.66-18.47-1.73-.73-3.48-1.81-5.68-2.27-9-1.88-17.25.75-24.53,2.17-4.94.96-9.12,1.64-13.63,2-2.82.23-5.76.48-9.01.96-13.93,2.06-26.01,9.43-38.35,13.32-7.05,2.22-13.97,3.14-20.68,2.48-7.47-.74-14.98-4.02-21.1-9.2-4.93-4.2-8.97-9.5-13.04-15.08-.85-1.17-1.71-2.34-2.58-3.51-8.34-11.24-18.11-22.29-28.56-29.33-6.22-4.19-12.37-8.21-17.31-11.31-6.25-3.92-10.66-6.61-16.77-4.24-10.62-1.88-36.5,14.69-51.4,18.38-20.67,5.12-42.13,7.74-63.45,5.36-14.76-1.64-29.57-6.82-40.61-16.49-4.31-3.77-8.05-8.21-12.23-11.76-8.64-7.35-16.56-10.32-21.91-13.86-.75-.5-1.57-.9-2.15-1.57-3.17-3.62-6.88-6.7-17.07-9.17-5.56-1.35-12.5-1.58-19.29-1.98-8.01-.48-16.11-1.57-24.04-3.75-13.15-3.59-21.76-13.51-23.24-18.55"/>
        <path class="cls-30" d="M630.37,111.78c-21.04-2.74-38.69-18.93-43.49-37.57-.41-1.59-.61-3.23-1.01-4.85-1.26-5.1-.69-7.87-2.29-12.43-3.1-8.84-1.76-15.57-10.06-20.98-1.61-1.05-3.18-2.36-5.23-3.11-8.11-2.94-16.48-1.76-24.18-.77-4.72.61-8.92,1.2-13.29,1.6-2.77.27-5.63.57-8.72,1.06-13.49,2.16-25.56,8.63-37.88,11.19-7.06,1.47-13.95,1.5-20.47,0-7.2-1.65-14.18-5.59-19.64-11.22-4.4-4.56-7.81-10.09-11.47-15.73-.76-1.17-1.54-2.35-2.35-3.52-7.68-11.2-17.79-21.47-28.65-27.37-6.7-3.64-13.41-6.44-19.1-8.03-6.9-1.93-12.13-2.33-18.65.97-10.17.32-32,14.35-45.78,18.2-18.47,5.17-37.76,7.78-56.96,5.65-13.78-1.52-27.53-6.66-37.84-15.76-4.02-3.55-7.52-7.68-11.22-11.22-7.68-7.36-14.22-11.74-17.95-16.64-.52-.68-1.1-1.34-1.46-2.13-2.17-4.89-4.21-9.23-13.16-12.59-5.04-1.9-11.56-2.34-17.89-2.78-7.51-.53-15.09-1.48-22.54-3.2-12.4-2.82-21.4-10.25-25.05-13.86"/>
        <path class="cls-4" d="M627.88,104.63c-20.46-4.97-36.17-23.38-38.14-42.87-.17-1.66-.15-3.34-.28-5.03-.39-4.98.51-8.53-.04-13.18-1.1-9.21.34-16.96-6.46-23.49-1.46-1.41-2.89-2.91-4.78-3.94-7.23-3.97-15.71-4.21-23.83-3.71-4.51.28-8.71.74-12.95,1.2-2.72.3-5.5.66-8.43,1.17-13.05,2.27-25.12,7.81-37.41,9.05-7.07.71-13.94-.15-20.26-2.47-6.95-2.55-13.39-7.16-18.17-13.23-3.86-4.93-6.67-10.68-9.91-16.37-.68-1.18-1.38-2.36-2.11-3.52-7.02-11.16-17.47-20.61-28.73-25.4-7.18-3.06-14.47-4.73-20.89-4.75-7.57-.02-13.06,3.01-20.52,6.18-9.24,3.93-27.52,13.99-40.15,18.02-16.28,5.19-33.38,7.81-50.48,5.93-12.8-1.4-25.5-6.51-35.07-15.02-3.73-3.33-7-7.16-10.21-10.69-6.72-7.38-11.89-13.17-13.99-19.41-.29-.87-.61-1.75-.76-2.69-.97-6.1-1.52-11.8-9.25-16.02-4.52-2.47-10.62-3.09-16.49-3.58-7-.59-14.07-1.39-21.05-2.64-11.65-2.05-21.05-6.98-26.86-9.17"/>
        <path class="cls-18" d="M625.4,97.48c-19.89-7.19-33.61-27.83-32.8-48.17.07-1.73.28-3.46.44-5.22.44-4.9,1.73-9.18,2.2-13.92.94-9.56,2.65-18.32-2.85-26.01-1.26-1.77-2.61-3.45-4.32-4.78-6.4-4.99-14.96-6.6-23.47-6.65-4.31-.03-8.51.29-12.62.79-2.67.33-5.37.75-8.14,1.27-12.6,2.4-24.67,6.98-36.94,6.92-7.08-.05-13.92-1.79-20.05-4.94-6.69-3.44-12.6-8.72-16.71-15.25-3.32-5.3-5.51-11.27-8.35-17.02-.59-1.19-1.21-2.37-1.87-3.53-6.35-11.12-17.14-19.71-28.82-23.44-7.66-2.45-15.58-3.05-22.68-1.46-8.3,1.86-14.72,6.76-22.39,11.39-8.91,5.38-23.04,13.61-34.53,17.84-14.1,5.18-29.01,7.85-44,6.22-11.81-1.29-23.46-6.35-32.29-14.29-3.45-3.1-6.46-6.64-9.2-10.15-5.74-7.4-9.57-14.59-10.02-22.19-.07-1.06-.11-2.14-.07-3.25.3-7.2,1.21-14.39-5.34-19.45-3.97-3.06-9.68-3.84-15.09-4.38-6.5-.65-13.04-1.31-19.55-2.08-10.9-1.28-20.69-3.71-28.67-4.48"/>
        <path class="cls-21" d="M622.91,90.6c-19.31-9.42-31.06-32.29-27.45-53.48,2.81-16.49,13.68-33.56,6.36-48.59-6.55-13.47-24.43-16.88-39.27-14.82-14.83,2.06-29.43,7.85-44.32,6.16-14.81-1.68-28.49-11.3-35.08-24.67-3.36-6.83-4.95-14.43-8.43-21.21-9.51-18.53-34.11-27.59-53.37-19.66-9.09,3.74-16.54,10.51-24.26,16.59-18.99,14.96-42.4,26.75-66.43,24.16-24.03-2.59-46.91-24.16-43.77-48.13,1.2-9.18,5.47-19.88-.81-26.68-3.39-3.66-8.74-4.6-13.69-5.19-16.09-1.91-32.36-2.35-48.54-1.32"/>
      </g>
    </g>
  </g>
</svg>